<svg xmlns="http://www.w3.org/2000/svg" width="54" height="54" viewBox="0 0 54 54"><path fill-rule="evenodd" clip-rule="evenodd" fill="#31B99F" d="M41.029 51.32V36.63a.96.96 0 00-.029-.239l10.891-4.871v14.94l-10.862 4.86zm-12.968-19.8l10.89 4.871a.932.932 0 00-.03.239v14.69l-10.859-4.86V31.52zM15.05 36.391l10.89-4.871v14.94l-10.86 4.86V36.63c0-.08-.01-.159-.03-.239zM2.11 31.52L13 36.391a.978.978 0 00-.03.239v14.69L2.11 46.46V31.52zm11.92-6.26l10.38 4.64-10.38 4.64L3.64 29.9l10.39-4.64zM27 2.21l10.391 4.64L27 11.49 16.61 6.85 27 2.21zm0 14.62c.58 0 1.061-.47 1.061-1.06v-2.44L38.92 8.48v14.94l-10.859 4.85v-2.96c0-.58-.48-1.06-1.061-1.06s-1.06.48-1.06 1.06v2.959l-10.86-4.85V8.48l10.86 4.85v2.44c0 .59.48 1.06 1.06 1.06zm12.971 17.71L29.59 29.9l10.381-4.641L50.359 29.9l-10.388 4.64zM54 29.82c0-.33-.18-.641-.471-.801-.059-.039-.119-.069-.18-.1l-12.32-5.5V6.79l-.01-.02v-.02c-.02-.21-.1-.4-.22-.56l-.01-.01-.011-.01-.01-.01-.02-.02-.01-.02-.02-.02-.018-.01-.02-.02-.02-.02-.02-.01-.01-.02h-.01l-.011-.01c-.069-.05-.149-.1-.229-.13L27.43.09c-.27-.12-.59-.12-.86 0L13.62 5.88c-.08.03-.16.08-.23.13l-.01.01h-.01l-.01.01v.01l-.02.01-.02.02-.02.02-.02.01-.01.02-.02.02-.02.02-.01.01-.01.01-.01.01c-.12.16-.2.35-.22.56v.02l-.01.02v16.63L.65 28.92c-.4.17-.65.551-.65.971v17.26c0 .41.24.789.62.959l12.98 5.8h.01c.26.119.57.119.84 0h.01L27 48.3l12.54 5.61.04.01c.27.1.561.1.82-.01l12.979-5.801c.37-.17.62-.549.62-.959V29.82z"/><path fill-rule="evenodd" clip-rule="evenodd" fill="#31B99F" d="M27 21.58c-.45 0-.86-.3-1-.72-.13-.4-.01-.85.3-1.13.35-.3.87-.34 1.26-.1.37.23.56.69.469 1.12-.099.47-.539.83-1.029.83z"/></svg>