<svg xmlns="http://www.w3.org/2000/svg" width="22" height="22" viewBox="0 0 22 22"><path fill="#FFF" d="M15 22c3.859 0 7-3.141 7-7V7c0-3.859-3.141-7-7-7H7C3.141 0 0 3.141 0 7v8c0 3.859 3.141 7 7 7h8zM7 2.64h8A4.37 4.37 0 0119.359 7v8c0 2.4-1.959 4.359-4.359 4.359H7A4.37 4.37 0 012.64 15V7C2.64 4.6 4.6 2.64 7 2.64zm9.74 3.65c.569 0 1.029-.46 1.029-1.03a1.028 1.028 0 10-2.058 0c0 .57.458 1.03 1.029 1.03zM11 16.661A5.668 5.668 0 0016.661 11c0-3.121-2.54-5.66-5.661-5.66A5.667 5.667 0 005.34 11 5.667 5.667 0 0011 16.661zm0-8.681A3.029 3.029 0 0114.019 11 3.027 3.027 0 0111 14.019 3.028 3.028 0 017.98 11 3.03 3.03 0 0111 7.98z"/></svg>