<svg xmlns="http://www.w3.org/2000/svg" width="14" height="21" viewBox="0 0 14 21"><path fill="#FFF" d="M6.977 10.938c3.269 0 5.957-2.426 5.966-5.396 0-1.499-.604-2.89-1.748-3.945C10.083.572 8.604 0 7.008 0c-3.27 0-5.936 2.446-5.956 5.455-.021 1.46.603 2.831 1.727 3.866 1.113 1.046 2.605 1.618 4.178 1.618l.02-.001zm.021-7.673c1.329.01 2.391.967 2.391 2.2.01 1.233-1.041 2.199-2.391 2.209-1.328 0-2.391-.957-2.391-2.18a2.08 2.08 0 01.685-1.578 2.535 2.535 0 011.706-.651zm0-.316v.316c-.011-.316 0-.316 0-.316zM2.83 21c.418 0 .807-.158 1.154-.475a161.174 161.174 0 002.942-2.713l.082-.068.071.051c.634.609 1.298 1.212 1.94 1.805l.951.877c.348.315.715.483 1.113.504a1.837 1.837 0 001.757-.985c.306-.603.175-1.244-.348-1.737L10.041 16l-1.205-1.105c.869-.127 1.555-.285 2.166-.502 1.002-.365 1.859-.867 2.555-1.52.541-.514.592-1.193.121-1.885-.377-.591-1.093-.857-1.828-.681-.326.07-.623.218-.93.425-1.135.709-2.473 1.075-3.903 1.075-1.44 0-2.892-.404-4.056-1.144a3.609 3.609 0 00-.429-.228 2.15 2.15 0 00-.848-.178c-.531 0-1.001.228-1.318.642-.562.73-.47 1.509.214 2.121.144.119.286.217.429.315l.092.067c1.094.791 2.371 1.264 4.077 1.5l-.531.482-3.044 2.813c-.235.207-.542.552-.572 1.064-.03.651.398 1.272 1.063 1.578.245.111.49.161.736.161z"/></svg>