<svg xmlns="http://www.w3.org/2000/svg" width="22" height="13" viewBox="0 0 22 13"><path fill="#FFF" d="M18.938 8.264c.722.754 1.492 1.445 2.146 2.271.286.365.571.73.778 1.158.299.602.031 1.252-.492 1.305l-3.202-.012c-.829.082-1.481-.274-2.035-.864-.444-.468-.858-.978-1.284-1.456a2.953 2.953 0 00-.582-.538c-.436-.296-.811-.215-1.066.265-.258.488-.307 1.027-.336 1.566-.03.784-.268.986-1.018 1.027-1.622.082-3.153-.174-4.586-1.027-1.265-.753-2.233-1.82-3.083-3.012C2.518 6.595 1.254 4.03.108 1.374-.139.784.048.468.671.448c1.047-.02 2.095-.02 3.142 0 .415.011.711.265.87.682.563 1.456 1.254 2.839 2.124 4.111.237.346.474.682.8.926.373.275.66.173.828-.254.119-.275.158-.57.188-.865.078-1.008.088-2.016-.05-3.023-.089-.631-.425-1.038-1.027-1.15-.317-.062-.258-.183-.119-.366C7.693.193 7.931 0 8.405 0h3.636c.563.123.691.377.771.987V5.18c0 .234.119.916.514 1.079.326.112.533-.163.721-.376.87-.957 1.482-2.097 2.036-3.267.247-.519.454-1.059.662-1.598.147-.397.386-.59.819-.58h3.486c.1 0 .209 0 .317.021.582.101.739.366.563.966-.287.937-.851 1.73-1.395 2.503-.583.845-1.195 1.659-1.77 2.514-.531.764-.49 1.15.173 1.822z"/></svg>