<?xml version="1.0" encoding="utf-8"?>
<!-- Generator: Adobe Illustrator 16.2.0, SVG Export Plug-In . SVG Version: 6.00 Build 0)  -->
<!DOCTYPE svg PUBLIC "-//W3C//DTD SVG 1.1//EN" "http://www.w3.org/Graphics/SVG/1.1/DTD/svg11.dtd">
<svg version="1.1" id="Слой_1" xmlns="http://www.w3.org/2000/svg" xmlns:xlink="http://www.w3.org/1999/xlink" x="0px" y="0px"
	 width="22px" height="19px" viewBox="0 0 22 19" enable-background="new 0 0 22 19" xml:space="preserve">
<g>
	<path fill="#FFFFFF" d="M13.1,8.26c1.08,1.06,1.08,2.78,0,3.84c-1.07,1.061-2.81,1.061-3.89,0c-1.07-1.06-1.07-2.78,0-3.84
		C10.29,7.2,12.029,7.2,13.1,8.26z"/>
	<path fill-rule="evenodd" clip-rule="evenodd" fill="#FFFFFF" d="M11,15.609c-3.03,0-5.5-2.439-5.5-5.43c0-2.99,2.47-5.43,5.5-5.43
		c3.029,0,5.5,2.44,5.5,5.43C16.5,13.17,14.029,15.609,11,15.609z M19.25,2.71h-1.9L15.971,0H6.02L4.65,2.72h-1.9
		c-1.51,0-2.74,1.22-2.74,2.71L0,16.29C0,17.779,1.23,19,2.75,19h16.5c1.52,0,2.75-1.221,2.75-2.71V5.43
		C22,3.93,20.77,2.71,19.25,2.71z"/>
</g>
</svg>
