<?xml version="1.0" encoding="utf-8"?>
<!-- Generator: Adobe Illustrator 16.2.0, SVG Export Plug-In . SVG Version: 6.00 Build 0)  -->
<!DOCTYPE svg PUBLIC "-//W3C//DTD SVG 1.1//EN" "http://www.w3.org/Graphics/SVG/1.1/DTD/svg11.dtd">
<svg version="1.1" id="Слой_1" xmlns="http://www.w3.org/2000/svg" xmlns:xlink="http://www.w3.org/1999/xlink" x="0px" y="0px"
	 width="26px" height="20px" viewBox="0 0 26 20" enable-background="new 0 0 26 20" xml:space="preserve">
<path fill-rule="evenodd" clip-rule="evenodd" fill="#31BA9F" d="M10.29,13.75h-6.5c-0.3,0-0.54-0.279-0.54-0.63
	c0-0.341,0.24-0.62,0.54-0.62h6.5c0.3,0,0.54,0.279,0.54,0.62C10.83,13.471,10.59,13.75,10.29,13.75z M10.29,16.25h-6.5
	c-0.3,0-0.54-0.279-0.54-0.63c0-0.341,0.24-0.62,0.54-0.62h6.5c0.3,0,0.54,0.279,0.54,0.62C10.83,15.971,10.59,16.25,10.29,16.25z
	 M21.67,13.204c0-0.295-0.25-0.536-0.55-0.536h-1.08c-0.3,0-0.54,0.241-0.54,0.536v1.083c0,0.304,0.24,0.545,0.54,0.545h1.08
	c0.3,0,0.55-0.241,0.55-0.545V13.204z M21.12,15.915h-1.08c-0.89,0-1.62-0.728-1.62-1.628v-1.083c0-0.892,0.73-1.619,1.62-1.619
	h1.08c0.899,0,1.63,0.728,1.63,1.619v1.083C22.75,15.188,22.02,15.915,21.12,15.915z M24.92,16.87V8.75H1.08v8.12
	c0,1.04,0.73,1.88,1.63,1.88h20.58C24.189,18.75,24.92,17.91,24.92,16.87L24.92,16.87z M24.92,5H1.08v2.5h23.84V5z M24.92,3.12
	c0-1.03-0.73-1.87-1.63-1.87H2.71c-0.9,0-1.63,0.84-1.63,1.87v0.63h23.84V3.12z M26,8.13v8.74C26,18.6,24.779,20,23.29,20H2.71
	C1.22,20,0,18.6,0,16.87V8.12V4.37V3.12C0,1.4,1.22,0,2.71,0h20.58C24.779,0,26,1.4,26,3.12v1.25v3.75V8.13z"/>
</svg>
