<svg xmlns="http://www.w3.org/2000/svg" width="17" height="22" viewBox="0 0 17 22"><path fill-rule="evenodd" clip-rule="evenodd" fill="#31BB9F" d="M15.558 15.733H1.432v1.979h14.125v-1.979zm-2.06-5.2c0-2.966-2.238-5.383-5.003-5.383-2.755 0-5.004 2.417-5.004 5.383v3.677h10.007v-3.677zm-5.003-9.01c-.527 0-.955.458-.955 1.016 0 .569.418 1.016.955 1.016s.955-.447.955-1.016c0-.558-.428-1.016-.955-1.016zm0 18.954c.806 0 1.482-.508 1.761-1.24H6.744c.279.732.945 1.24 1.751 1.24zm7.779-1.241h-4.527C11.419 20.812 10.086 22 8.495 22c-1.592 0-2.915-1.188-3.243-2.764H.716c-.398 0-.716-.344-.716-.761v-3.503c0-.417.318-.762.716-.762h1.343v-3.677c0-3.067 1.87-5.667 4.456-6.571a2.654 2.654 0 01-.417-1.423C6.098 1.138 7.172 0 8.495 0s2.397 1.138 2.397 2.539a2.64 2.64 0 01-.418 1.422c2.586.904 4.467 3.504 4.467 6.571v3.677h1.333c.397 0 .726.345.726.762v3.503c0 .418-.328.762-.726.762z"/></svg>