<svg xmlns="http://www.w3.org/2000/svg" width="22" height="20" viewBox="0 0 22 20"><path fill-rule="evenodd" clip-rule="evenodd" fill="#31BB9F" d="M9.617 13.284h5.463c.482 0 .876.384.876.854 0 .463-.394.847-.876.847H9.617c-.482 0-.876-.384-.876-.847 0-.47.394-.854.876-.854zM15.08 7.02H9.617c-.482 0-.876-.374-.876-.846s.394-.855.876-.855h5.463c.482 0 .876.384.876.855 0 .472-.393.846-.876.846zm2.097 4.111h-7.56c-.482 0-.876-.384-.876-.846 0-.472.394-.855.876-.855h7.56c.473 0 .865.384.865.855a.863.863 0 01-.865.846zm3.07-9.43H6.565v15.094a3.13 3.13 0 01-.364 1.475h11.9c1.161 0 2.146-.954 2.146-2.096V1.701zM4.823 10.56H3.278c-.847 0-1.536.679-1.536 1.505v4.73c0 .835.689 1.503 1.536 1.503v-.028h.305c.708-.139 1.24-.747 1.24-1.475V10.56zm13.279 9.411H3.721a3.353 3.353 0 01-.443.029C1.476 20 0 18.563 0 16.795v-4.73c0-1.76 1.477-3.196 3.278-3.196h1.545V.845c0-.472.394-.845.866-.845h15.435c.482 0 .876.373.876.845v15.329c0 2.096-1.753 3.797-3.898 3.797z"/></svg>