<svg xmlns="http://www.w3.org/2000/svg" width="136" height="20" viewBox="0 0 136 20"><path d="M10.063 7.935c3.369.612 4.923 3.35 4.584 5.872-.309 2.123-.907 3.688-2.531 5.014-1.684 1.297-4.205 1.194-6.218 1.165-2.133-.052-5.312-.685-5.312-.685l1.086-5.494s2.741.418 4.793.552c1.037.051 2.222.295 2.432-.715.08-.368.109-1.093-1.346-1.277 0 0-.049-.021-1.684-.234-1.604-.245-2.381-.429-2.381-.429C.845 11.152-.222 8.435.037 6.393c.289-2.145.857-3.717 2.512-5.014C4.214.05 6.227-.062 8.2.02c1.943.112 5.541.746 5.541.746l-1.166 5.31s-3.129-.398-4.455-.5c-1.654-.113-2.252-.246-2.461.53a.918.918 0 00.548 1.114s.279.132 2.072.398a120.7 120.7 0 001.784.317zm19.184-2.094V.796H16.272v18.423h13.005v-5.208h-7.414v-1.829h7.255V7.566h-7.255V5.841zm13.265 13.378H31.22V.796h5.572v12.683h5.72zM57.201 5.892V.796H44.196v18.423h5.571v-6.638h7.364V7.965h-7.364V5.892zM76.017.796h-5.601V9.18L64.666.796l-5.571.02v18.403h5.571v-8.496l5.779 8.526.051-.03h5.521zM89.85 7.138c-.808-.827-1.744-1.225-2.851-1.225-1.146 0-2.073.398-2.88 1.225-.777.797-1.166 1.777-1.166 2.92 0 1.145.389 2.124 1.166 2.952.807.797 1.734 1.195 2.88 1.195 1.106 0 2.043-.398 2.851-1.195.827-.828 1.216-1.807 1.216-2.952-.001-1.143-.389-2.123-1.216-2.92zm3.956 9.906c-1.883 1.91-4.146 2.89-6.807 2.89-2.672 0-4.924-.979-6.816-2.89-1.863-1.939-2.831-4.279-2.831-6.986 0-2.736.968-5.075 2.831-6.985 1.893-1.94 4.145-2.92 6.816-2.92 2.661 0 4.924.98 6.807 2.92 1.893 1.91 2.851 4.249 2.851 6.985-.001 2.707-.959 5.046-2.851 6.986zm16.074 2.175L116.646.816h-5.958l-3.967 10.734L102.784.816h-5.959l6.738 18.403zm15.267-7.118l1.266-3.737 1.275 3.737h-2.541zm4.974 7.118H136L129.762.796h-6.687l-6.248 18.423 5.909.03.827-2.45h5.73l.828 2.42z" fill-rule="evenodd" clip-rule="evenodd" fill="#31BA9F"/></svg>