<?xml version="1.0" encoding="utf-8"?>
<!-- Generator: Adobe Illustrator 16.2.0, SVG Export Plug-In . SVG Version: 6.00 Build 0)  -->
<!DOCTYPE svg PUBLIC "-//W3C//DTD SVG 1.1//EN" "http://www.w3.org/Graphics/SVG/1.1/DTD/svg11.dtd">
<svg version="1.1" id="Слой_1" xmlns="http://www.w3.org/2000/svg" xmlns:xlink="http://www.w3.org/1999/xlink" x="0px" y="0px"
	 width="19px" height="21px" viewBox="0 0 19 21" enable-background="new 0 0 19 21" xml:space="preserve">
<g>
	<path fill-rule="evenodd" clip-rule="evenodd" fill="#30BA9E" d="M18.998,0L5.509,2.771V14.3c-0.56-0.399-1.24-0.62-1.97-0.62
		C1.589,13.68,0,15.32,0,17.34c0,2.019,1.59,3.659,3.54,3.659c1.82,0,3.33-1.43,3.52-3.25h0.03V9.55l10.339-2.11v4.18
		c-0.57-0.39-1.249-0.63-1.969-0.63c-1.96,0-3.55,1.64-3.55,3.67c0,2.02,1.59,3.659,3.55,3.659c2.089,0,3.749-1.89,3.52-4.069h0.02
		V0z M3.54,19.369c-1.08,0-1.97-0.91-1.97-2.029s0.89-2.04,1.97-2.04c1.09,0,1.97,0.921,1.97,2.04S4.629,19.369,3.54,19.369z
		 M15.459,16.689c-1.09,0-1.97-0.91-1.97-2.029c0-1.12,0.88-2.04,1.97-2.04c1.08,0,1.969,0.92,1.969,2.04
		C17.428,15.779,16.539,16.689,15.459,16.689z M17.428,5.201L7.089,7.32V4.67l10.339-2.11V5.201z"/>
</g>
</svg>
