<svg xmlns="http://www.w3.org/2000/svg" width="25" height="25" viewBox="0 0 25 25"><path fill-rule="evenodd" clip-rule="evenodd" fill="#31BB9F" d="M24.112 0H25v.897c-.215.673-.438 1.336-.644 2.009l-6.109 20.337c-.315 1.052-1.254 1.775-2.244 1.756-1.02-.021-1.887-.745-2.193-1.826-.835-2.938-1.682-5.876-2.508-8.822-.103-.368-.266-.542-.633-.644-2.805-.785-5.59-1.642-8.395-2.376C1.143 11.036.378 10.475 0 9.384v-.785c.316-.897.826-1.582 1.806-1.867 2.621-.755 5.222-1.55 7.833-2.336l9.954-2.999C21.104.938 22.604.469 24.112 0z"/></svg>