<svg xmlns="http://www.w3.org/2000/svg" width="20" height="20" viewBox="0 0 20 20"><path fill-rule="evenodd" clip-rule="evenodd" fill="#FFF" d="M19.284 0H20v.715c-.174.541-.358 1.072-.522 1.604l-4.887 16.272c-.255.847-1.002 1.429-1.789 1.408-.817-.02-1.514-.603-1.759-1.46-.665-2.35-1.35-4.698-2.004-7.059-.082-.296-.215-.429-.511-.521-2.239-.622-4.468-1.306-6.718-1.898C.911 8.825.297 8.376 0 7.508v-.633c.246-.715.655-1.256 1.442-1.492 2.096-.602 4.182-1.236 6.268-1.869l7.966-2.4C16.882.756 18.078.378 19.284 0z"/></svg>