<?xml version="1.0" encoding="utf-8"?>
<!-- Generator: Adobe Illustrator 16.2.0, SVG Export Plug-In . SVG Version: 6.00 Build 0)  -->
<!DOCTYPE svg PUBLIC "-//W3C//DTD SVG 1.1//EN" "http://www.w3.org/Graphics/SVG/1.1/DTD/svg11.dtd">
<svg version="1.1" id="Слой_1" xmlns="http://www.w3.org/2000/svg" xmlns:xlink="http://www.w3.org/1999/xlink" x="0px" y="0px"
	 width="77px" height="82px" viewBox="0 0 77 82" enable-background="new 0 0 77 82" xml:space="preserve">
<g>
	<g>
		<g>
			<path fill-rule="evenodd" clip-rule="evenodd" fill="#30BA9E" d="M2.75,6.83c0-2.26,1.85-4.09,4.12-4.1h39.879v9.57
				c0,3.77,3.08,6.83,6.87,6.83h9.629v25.399c-9.3-2.759-19.199,1.791-23.119,10.621c-3.91,8.82-0.601,19.16,7.71,24.119H6.87
				c-2.27-0.01-4.12-1.84-4.12-4.1V6.83z M49.499,4.67L61.298,16.4h-7.679c-2.271,0-4.12-1.84-4.12-4.101V4.67z M74.248,62.87
				c0,6.63-4.02,12.61-10.189,15.149c-6.16,2.541-13.26,1.131-17.979-3.56c-4.721-4.69-6.13-11.739-3.58-17.871
				c2.561-6.129,8.58-10.118,15.249-10.118C66.857,46.48,74.238,53.811,74.248,62.87z M6.87,82h50.878c9,0,16.8-6.2,18.779-14.93
				c1.98-8.73-2.399-17.65-10.529-21.49v-27.81c0-0.37-0.15-0.71-0.4-0.97L49.099,0.4c-0.26-0.26-0.609-0.4-0.979-0.4H6.87
				C3.08,0,0,3.06,0,6.83v68.34C0,78.939,3.08,82,6.87,82z"/>
		</g>
	</g>
	<path fill-rule="evenodd" clip-rule="evenodd" fill="#30BA9E" d="M22,25.97c0,0.75,0.62,1.36,1.37,1.36h32.999
		c0.76,0,1.38-0.61,1.38-1.36c0-0.76-0.62-1.37-1.38-1.37H23.37C22.62,24.6,22,25.21,22,25.97z"/>
	<path fill-rule="evenodd" clip-rule="evenodd" fill="#30BA9E" d="M9.62,35.53h27.499c0.76,0,1.38-0.61,1.38-1.36
		c0-0.76-0.62-1.37-1.38-1.37H9.62c-0.75,0-1.37,0.61-1.37,1.37C8.25,34.92,8.87,35.53,9.62,35.53z"/>
	<path fill-rule="evenodd" clip-rule="evenodd" fill="#30BA9E" d="M42.619,41h-11c-0.75,0-1.37,0.61-1.37,1.37
		c0,0.75,0.62,1.36,1.37,1.36h11c0.76,0,1.38-0.61,1.38-1.36C43.999,41.61,43.379,41,42.619,41z"/>
	<path fill-rule="evenodd" clip-rule="evenodd" fill="#30BA9E" d="M9.62,51.93h24.749c0.76,0,1.38-0.609,1.38-1.359
		c0-0.76-0.62-1.37-1.38-1.37H9.62c-0.75,0-1.37,0.61-1.37,1.37C8.25,51.32,8.87,51.93,9.62,51.93z"/>
	<path fill-rule="evenodd" clip-rule="evenodd" fill="#30BA9E" d="M9.62,27.33h8.25c0.76,0,1.38-0.61,1.38-1.36
		c0-0.76-0.62-1.37-1.38-1.37H9.62c-0.75,0-1.37,0.61-1.37,1.37C8.25,26.72,8.87,27.33,9.62,27.33z"/>
	<path fill-rule="evenodd" clip-rule="evenodd" fill="#30BA9E" d="M56.368,32.8H42.619c-0.761,0-1.37,0.61-1.37,1.37
		c0,0.75,0.609,1.36,1.37,1.36h13.749c0.76,0,1.38-0.61,1.38-1.36C57.748,33.41,57.128,32.8,56.368,32.8z"/>
	<path fill-rule="evenodd" clip-rule="evenodd" fill="#30BA9E" d="M9.62,43.73h16.5c0.76,0,1.38-0.61,1.38-1.36
		c0-0.76-0.62-1.37-1.38-1.37H9.62c-0.75,0-1.37,0.61-1.37,1.37C8.25,43.12,8.87,43.73,9.62,43.73z"/>
	<path fill-rule="evenodd" clip-rule="evenodd" fill="#30BA9E" d="M31.619,65.6h-5.5c-0.75,0-1.37,0.61-1.37,1.371
		c0,0.75,0.62,1.359,1.37,1.359h5.5c0.76,0,1.38-0.609,1.38-1.359C32.999,66.21,32.379,65.6,31.619,65.6z"/>
	<path fill-rule="evenodd" clip-rule="evenodd" fill="#30BA9E" d="M9.62,68.33h11c0.76,0,1.38-0.609,1.38-1.359
		c0-0.761-0.62-1.371-1.38-1.371h-11c-0.75,0-1.37,0.61-1.37,1.371C8.25,67.721,8.87,68.33,9.62,68.33z"/>
	<path fill-rule="evenodd" clip-rule="evenodd" fill="#30BA9E" d="M9.62,60.13h8.25c0.76,0,1.38-0.61,1.38-1.36
		c0-0.76-0.62-1.369-1.38-1.369H9.62c-0.75,0-1.37,0.609-1.37,1.369C8.25,59.52,8.87,60.13,9.62,60.13z"/>
	<path fill-rule="evenodd" clip-rule="evenodd" fill="#30BA9E" d="M9.62,19.13h16.5c0.76,0,1.38-0.61,1.38-1.359
		c0-0.76-0.62-1.37-1.38-1.37H9.62c-0.75,0-1.37,0.61-1.37,1.37C8.25,18.52,8.87,19.13,9.62,19.13z"/>
	<path fill-rule="evenodd" clip-rule="evenodd" fill="#30BA9E" d="M31.619,57.4h-8.25C22.62,57.4,22,58.01,22,58.77
		c0,0.75,0.62,1.36,1.37,1.36h8.25c0.76,0,1.38-0.61,1.38-1.36C32.999,58.01,32.379,57.4,31.619,57.4z"/>
	<path fill-rule="evenodd" clip-rule="evenodd" fill="#30BA9E" d="M50.47,66c-0.541-0.529-1.41-0.529-1.941,0
		c-0.539,0.529-0.539,1.4,0,1.93l5.499,5.471c0.25,0.26,0.601,0.399,0.971,0.399l0.13-0.01c0.41-0.04,0.78-0.261,1.011-0.601
		l11-16.4c0.42-0.629,0.25-1.469-0.381-1.889c-0.63-0.41-1.48-0.25-1.91,0.379L54.788,70.29L50.47,66z"/>
</g>
</svg>
