<svg xmlns="http://www.w3.org/2000/svg" width="26" height="22" viewBox="0 0 26 22"><path fill-rule="evenodd" clip-rule="evenodd" fill="#31BB9F" d="M12.471 9.788c-.068-.138-.188-.354-.188-.65 0-.533 0-1.656-.188-2.297a.74.74 0 01-.03-.207c-.019-.896-.178-1.064-.306-1.202l-.396-.059c-.287-.049-.623-.108-.919-.266a3.275 3.275 0 00-1.524-.395c-1.176.049-2.75.808-3.244 2.139-.128.335-.108 1.261-.098 1.813l.01.473c0 .296-.119.512-.188.65-.069.128-.119.217-.04.572.108.493.534.946.94 1.331.257.247.484.661.742 1.143.138.267.375.72.474.817a.84.84 0 01.247.563v1.922c0 .375-.277.69-.643.77l-4.213.888c-.742.156-1.276.798-1.276 1.537v1.095h14.618V19.33c0-.739-.533-1.381-1.274-1.537l-4.214-.888a.793.793 0 01-.634-.77v-1.922c0-.207.08-.414.238-.563.109-.098.336-.551.475-.817.257-.482.474-.896.742-1.143.416-.404.831-.838.929-1.331.078-.354.029-.443-.04-.571zm1.444-.651c.139.187.375.64.188 1.538-.188.907-.811 1.586-1.385 2.129-.089.099-.296.483-.425.739-.178.354-.356.68-.544.946v1.016l3.571.749c1.483.315 2.561 1.606 2.561 3.075v1.882a.803.803 0 01-.811.789H.811A.803.803 0 010 21.211v-1.882c0-1.469 1.078-2.76 2.562-3.075l3.569-.749v-1.016c-.187-.257-.365-.592-.543-.937-.138-.256-.346-.65-.435-.749-.574-.543-1.187-1.222-1.385-2.129-.188-.897.06-1.35.188-1.596v-.384c-.02-.966-.02-1.814.188-2.376.742-2.001 2.957-3.105 4.767-3.174.891.02 1.612.208 2.324.592.06.03.268.059.406.089.416.069.94.148 1.315.542.495.522.702 1.124.732 2.149.227.837.227 1.99.227 2.621zm11.273 9.719h-5.033a.797.797 0 01-.81-.789c0-.434.355-.789.81-.789h4.224v-.857c0-.729-.534-1.37-1.267-1.527l-4.193-.897a.788.788 0 01-.632-.759v-2.424c0-.414.326-.75.751-.779 1.453-.108 2.255-.286 2.612-.404-.12-1.558-1.001-4.702-1.347-5.864a.54.54 0 01-.039-.217c-.01-.926-.168-1.094-.316-1.251l-.405-.06c-.298-.049-.634-.099-.93-.256a3.216 3.216 0 00-1.563-.404c-.92.04-1.92.453-2.552 1.094a.822.822 0 01-1.147.02.773.773 0 01-.03-1.114c.93-.926 2.315-1.518 3.708-1.577.891.02 1.623.217 2.364.602.061.029.278.069.415.088.426.069.951.148 1.325.533.517.542.723 1.143.752 2.198.218.709 1.404 4.761 1.404 6.525 0 .877-.958 1.34-3.383 1.587v1.064l3.563.76c1.462.314 2.53 1.605 2.53 3.064v1.646a.795.795 0 01-.811.787z"/></svg>