<svg xmlns="http://www.w3.org/2000/svg" width="26" height="23" viewBox="0 0 26 23"><path fill-rule="evenodd" clip-rule="evenodd" d="M12.47 10.23c-.07-.14-.19-.37-.19-.68 0-.56 0-1.73-.19-2.4a.78.78 0 01-.03-.22c-.01-.94-.17-1.11-.3-1.26l-.4-.06c-.29-.05-.62-.1-.92-.27-.48-.27-.94-.4-1.52-.41-1.18.04-2.75.84-3.25 2.23-.13.35-.11 1.32-.09 1.89v.5c0 .31-.11.54-.18.68-.07.14-.12.23-.04.6.1.51.53.99.93 1.391.27.26.49.689.74 1.199.14.28.38.74.49.859.14.15.24.371.24.58v2.021c0 .38-.27.72-.64.8l-4.21.92c-.75.16-1.28.84-1.28 1.61v1.149h14.62V20.21c0-.771-.54-1.45-1.279-1.61l-4.211-.92a.824.824 0 01-.64-.8v-2.021c0-.219.09-.43.24-.59.11-.109.34-.569.48-.85.25-.5.47-.939.73-1.199.43-.42.84-.88.94-1.39.07-.37.03-.46-.04-.6zm1.44-.68c.14.2.38.68.189 1.61-.189.939-.81 1.66-1.39 2.23-.08.1-.29.5-.42.77-.18.369-.36.71-.54.99v1.06l3.571.79c1.479.32 2.56 1.67 2.56 3.21v1.97c0 .45-.37.82-.819.82H.81c-.45 0-.81-.37-.81-.82v-1.97c0-1.54 1.08-2.89 2.56-3.21l3.57-.79v-1.06c-.19-.271-.36-.621-.54-.98-.14-.27-.35-.68-.44-.779-.57-.57-1.19-1.281-1.38-2.23-.19-.93.05-1.41.18-1.67v-.4C3.93 8.07 3.93 7.19 4.14 6.6c.74-2.09 2.96-3.25 4.77-3.31.89.02 1.61.21 2.32.61.06.03.27.07.41.09.42.07.94.16 1.31.57.5.55.7 1.18.73 2.25.23.88.23 2.08.23 2.74zm11.279 10.16H20.15a.81.81 0 01-.811-.819c0-.451.36-.82.811-.82h4.229v-.9c0-.76-.54-1.43-1.271-1.6l-4.189-.93a.825.825 0 01-.641-.801v-2.53c0-.43.33-.79.75-.82 1.461-.12 2.261-.3 2.621-.42-.121-1.63-1-4.92-1.351-6.14a.746.746 0 01-.04-.22c-.01-.97-.17-1.15-.32-1.31l-.398-.06c-.29-.05-.63-.11-.931-.27-.52-.29-.979-.41-1.569-.43-.92.04-1.91.48-2.55 1.15a.797.797 0 01-1.14.02.821.821 0 01-.03-1.16C14.25.68 15.63.06 17.029 0c.891.02 1.621.22 2.361.63.06.03.27.06.42.09.42.07.949.16 1.319.55.521.57.729 1.2.761 2.3.21.74 1.4 4.98 1.4 6.83 0 .92-.97 1.4-3.38 1.65v1.12l3.55.801c1.47.329 2.54 1.67 2.54 3.199v1.721a.808.808 0 01-.811.819z"/></svg>