<?xml version="1.0" encoding="utf-8"?>
<!-- Generator: Adobe Illustrator 16.2.0, SVG Export Plug-In . SVG Version: 6.00 Build 0)  -->
<!DOCTYPE svg PUBLIC "-//W3C//DTD SVG 1.1//EN" "http://www.w3.org/Graphics/SVG/1.1/DTD/svg11.dtd">
<svg version="1.1" id="Слой_1" xmlns="http://www.w3.org/2000/svg" xmlns:xlink="http://www.w3.org/1999/xlink" x="0px" y="0px"
	 width="22px" height="20px" viewBox="0 0 22 20" enable-background="new 0 0 22 20" xml:space="preserve">
<path fill-rule="evenodd" clip-rule="evenodd" fill="#31BB9F" d="M11,7.45c-2.01,0-3.65,1.65-3.65,3.68
	c0,2.021,1.64,3.681,3.65,3.681s3.65-1.66,3.65-3.681C14.65,9.1,13.01,7.45,11,7.45z M11,16.54c-2.96,0-5.37-2.431-5.37-5.41
	c0-2.99,2.41-5.42,5.37-5.42s5.37,2.43,5.37,5.42C16.37,14.109,13.96,16.54,11,16.54z M16.84,6.58h1.721v1.73H16.84V6.58z
	 M20.279,5.71c0-0.47-0.379-0.86-0.859-0.86h-3.16c-0.76,0-1.439-0.43-1.779-1.11V3.73L13.6,1.88c-0.039-0.09-0.129-0.15-0.229-0.15
	H8.7c-0.1,0-0.19,0.06-0.24,0.15L7.58,3.73v0.01C7.24,4.42,6.56,4.85,5.8,4.85H2.58c-0.48,0-0.86,0.39-0.86,0.86V17.4
	c0,0.479,0.38,0.869,0.86,0.869h16.84c0.48,0,0.859-0.39,0.859-0.869V5.71z M19.42,20H2.58C1.16,20,0,18.83,0,17.4V5.71
	c0-1.43,1.16-2.59,2.58-2.59H5.8c0.1,0,0.19-0.06,0.24-0.15l0.87-1.85l0.01-0.01C7.26,0.42,7.94,0,8.7,0h4.67
	c0.75,0,1.43,0.42,1.771,1.11l0.01,0.01l0.869,1.85c0.051,0.09,0.141,0.15,0.24,0.15h3.16c1.42,0,2.58,1.16,2.58,2.59V17.4
	C22,18.83,20.84,20,19.42,20z"/>
</svg>
