<svg xmlns="http://www.w3.org/2000/svg" width="22" height="20" viewBox="0 0 22 20"><path fill-rule="evenodd" clip-rule="evenodd" fill="#30BA9E" d="M13.141 11.88H10.77c-3.45 0-6.64 1.479-8.86 4.021.62-5.081 4.87-9.021 10.01-9.021h1.221c.5 0 .92-.42.92-.94V3.26l5.75 6.12-5.75 6.11v-2.68c0-.51-.42-.93-.92-.93zM.92 20a.9.9 0 00.81-.51l.02-.03c1.72-3.521 5.18-5.71 9.02-5.71h1.451v4.061c0 .39.229.729.579.869a.88.88 0 001-.22l7.94-8.43c.35-.37.35-.94 0-1.3L13.8.29a.881.881 0 00-1-.22.937.937 0 00-.579.87V5h-.301C5.35 5 0 10.47 0 17.189v1.871a.926.926 0 00.92.94z"/></svg>