<svg xmlns="http://www.w3.org/2000/svg" width="22" height="22" viewBox="0 0 22 22"><g fill-rule="evenodd" clip-rule="evenodd" fill="#DDD"><path d="M11 14.939c-2.17 0-3.94-1.77-3.94-3.939S8.83 7.06 11 7.06s3.939 1.77 3.939 3.94S13.17 14.939 11 14.939zm0-9.199C8.1 5.74 5.74 8.1 5.74 11S8.1 16.26 11 16.26s5.26-2.359 5.26-5.26c0-2.9-2.36-5.26-5.26-5.26z"/><path d="M20.689 12.33l-1.56.34a.666.666 0 00-.489.471 7.485 7.485 0 01-.73 1.75.664.664 0 00.02.68l.86 1.34-1.88 1.88-1.34-.86a.664.664 0 00-.68-.02 7.442 7.442 0 01-1.75.73.668.668 0 00-.471.489l-.34 1.56H9.67l-.34-1.56a.663.663 0 00-.47-.489 7.45 7.45 0 01-1.75-.73.664.664 0 00-.68.02l-1.34.86-1.88-1.88.86-1.34c.13-.2.14-.471.02-.68a7.485 7.485 0 01-.73-1.75.67.67 0 00-.49-.471l-1.56-.34V9.67l1.56-.34c.23-.05.42-.23.49-.47.17-.61.41-1.2.73-1.75.12-.21.11-.48-.02-.68l-.86-1.34 1.88-1.88 1.34.86c.2.13.47.14.68.02a7.45 7.45 0 011.75-.73c.24-.07.42-.26.47-.49l.34-1.56h2.66l.34 1.56c.051.23.23.42.471.49.609.17 1.199.41 1.75.73.209.12.479.11.679-.02l1.34-.86 1.88 1.88-.86 1.34c-.13.2-.14.47-.02.68.32.55.561 1.14.73 1.75.07.24.26.42.49.47l1.56.34v2.66zm.791-3.83l-1.69-.37a9.88 9.88 0 00-.54-1.31l.93-1.46c.17-.26.131-.6-.08-.82L17.46 1.9a.663.663 0 00-.819-.08l-1.461.93c-.42-.21-.859-.39-1.31-.54L13.5.52a.655.655 0 00-.641-.52H9.14c-.31 0-.58.22-.64.52l-.37 1.69c-.45.15-.89.33-1.31.54l-1.46-.93a.664.664 0 00-.82.08L1.9 4.54c-.21.22-.25.56-.08.82l.93 1.46c-.21.42-.39.86-.54 1.31L.52 8.5c-.3.06-.52.33-.52.64v3.719c0 .311.22.58.52.641l1.69.37c.15.45.33.89.54 1.31l-.93 1.461c-.17.26-.13.6.08.819l2.64 2.64c.22.211.56.25.82.08l1.46-.93c.42.21.86.391 1.31.54l.37 1.69c.06.299.33.52.64.52h3.719c.311 0 .58-.221.641-.52l.37-1.69c.45-.149.89-.33 1.31-.54l1.461.93c.26.17.6.131.819-.08l2.64-2.64c.211-.22.25-.56.08-.819l-.93-1.461c.21-.42.391-.859.54-1.31l1.69-.37a.656.656 0 00.52-.641V9.14c0-.31-.221-.58-.52-.64z"/></g></svg>