<?xml version="1.0" encoding="utf-8"?>
<!-- Generator: Adobe Illustrator 16.2.0, SVG Export Plug-In . SVG Version: 6.00 Build 0)  -->
<!DOCTYPE svg PUBLIC "-//W3C//DTD SVG 1.1//EN" "http://www.w3.org/Graphics/SVG/1.1/DTD/svg11.dtd">
<svg version="1.1" id="Слой_1" xmlns="http://www.w3.org/2000/svg" xmlns:xlink="http://www.w3.org/1999/xlink" x="0px" y="0px"
	 width="110px" height="18px" viewBox="0 0 110 18" enable-background="new 0 0 110 18" xml:space="preserve">
<g>
	<path fill="#FFFFFF" stroke="#31BA9F" stroke-linecap="round" stroke-linejoin="round" stroke-miterlimit="10" d="M-11.75-22.042
		v62.75h133.5v-62.75H-11.75z M9.25,13.027c-0.15,0-0.3,0.039-0.44,0.13l-3.75,2.34l0.97-4.47c0.07-0.311-0.04-0.649-0.27-0.86
		l-3.3-3.02l4.36-0.41c0.32-0.029,0.59-0.239,0.71-0.539l1.72-4.21l1.72,4.21c0.12,0.3,0.39,0.51,0.71,0.539l4.36,0.41l-3.3,3.02
		c-0.23,0.222-0.34,0.551-0.27,0.871l0.97,4.459l-3.75-2.34C9.549,13.066,9.399,13.027,9.25,13.027z M32.25,13.027
		c-0.15,0-0.3,0.039-0.44,0.13l-3.75,2.34l0.97-4.47c0.07-0.311-0.04-0.649-0.27-0.86l-3.3-3.02l4.36-0.41
		c0.32-0.029,0.59-0.239,0.71-0.539l1.72-4.21l1.72,4.21c0.12,0.3,0.39,0.51,0.71,0.539l4.36,0.41l-3.3,3.02
		c-0.23,0.222-0.34,0.551-0.27,0.871l0.97,4.459l-3.75-2.34C32.549,13.066,32.399,13.027,32.25,13.027z M55.25,13.027
		c-0.15,0-0.3,0.039-0.439,0.13l-3.75,2.34l0.969-4.47c0.07-0.311-0.039-0.649-0.27-0.86l-3.3-3.02l4.36-0.41
		c0.32-0.029,0.59-0.239,0.709-0.539l1.721-4.21l1.721,4.21c0.119,0.3,0.389,0.51,0.709,0.539l4.359,0.41l-3.299,3.02
		c-0.23,0.222-0.34,0.551-0.27,0.871l0.969,4.459l-3.75-2.34C55.549,13.066,55.4,13.027,55.25,13.027z M78.25,13.027
		c-0.15,0-0.301,0.039-0.439,0.13l-3.75,2.34l0.969-4.47c0.07-0.311-0.038-0.649-0.27-0.86l-3.301-3.02l4.361-0.41
		c0.32-0.029,0.59-0.239,0.709-0.539l1.721-4.21l1.721,4.21c0.119,0.3,0.389,0.51,0.709,0.539l4.359,0.41l-3.299,3.02
		c-0.23,0.222-0.34,0.551-0.27,0.871l0.969,4.459l-3.75-2.34C78.549,13.066,78.4,13.027,78.25,13.027z M101.25,13.027
		c-0.15,0-0.301,0.039-0.439,0.13l-3.75,2.34l0.969-4.47c0.07-0.311-0.038-0.649-0.27-0.86l-3.301-3.02l4.361-0.41
		c0.32-0.029,0.59-0.239,0.709-0.539l1.721-4.21l1.721,4.21c0.119,0.3,0.389,0.51,0.709,0.539l4.359,0.41l-3.299,3.02
		c-0.23,0.222-0.34,0.551-0.27,0.871l0.969,4.459l-3.75-2.34C101.549,13.066,101.4,13.027,101.25,13.027z"/>
</g>
</svg>
