<svg xmlns="http://www.w3.org/2000/svg" width="25" height="25" viewBox="0 0 25 25"><g fill="#31BB9F"><path fill-rule="evenodd" clip-rule="evenodd" d="M22.859 22.859l-2.069-.569-.271.181a6.573 6.573 0 01-3.6 1.069c-2.87 0-5.38-1.86-6.27-4.511 4.379-.51 7.87-4 8.379-8.379 2.65.89 4.511 3.4 4.511 6.27 0 1.28-.37 2.53-1.069 3.6l-.18.27.569 2.069zM4.92 16.18l-2.78.78.77-2.79-.18-.279A8.032 8.032 0 011.46 9.55c0-4.46 3.63-8.09 8.09-8.09 4.45 0 8.08 3.63 8.08 8.09 0 4.45-3.63 8.08-8.08 8.08-1.55 0-3.05-.44-4.35-1.271l-.28-.179zm20.08.74c0-3.65-2.46-6.83-5.92-7.79C18.859 4.06 14.67 0 9.55 0 4.28 0 0 4.28 0 9.55c0 1.71.46 3.38 1.32 4.851l-1.28 4.66 4.65-1.291a9.513 9.513 0 004.44 1.311 8.103 8.103 0 007.79 5.92 8.11 8.11 0 004.109-1.12l3.931 1.08-1.08-3.931A8.116 8.116 0 0025 16.92z"/><path d="M8.81 13.23h1.47v1.47H8.81z"/><path fill-rule="evenodd" clip-rule="evenodd" d="M11.01 7.32c0 .42-.17.8-.48 1.09L8.81 9.98v1.79h1.47v-1.14l1.24-1.14c.61-.56.96-1.35.96-2.17a2.94 2.94 0 00-2.93-2.93c-1.62 0-2.93 1.32-2.93 2.93h1.46c0-.8.66-1.46 1.47-1.46.8 0 1.46.66 1.46 1.46z"/></g></svg>