<?xml version="1.0" encoding="utf-8"?>
<!-- Generator: Adobe Illustrator 16.2.0, SVG Export Plug-In . SVG Version: 6.00 Build 0)  -->
<!DOCTYPE svg PUBLIC "-//W3C//DTD SVG 1.1//EN" "http://www.w3.org/Graphics/SVG/1.1/DTD/svg11.dtd">
<svg version="1.1" id="Слой_1" xmlns="http://www.w3.org/2000/svg" xmlns:xlink="http://www.w3.org/1999/xlink" x="0px" y="0px"
	 width="20px" height="20px" viewBox="0 0 20 20" enable-background="new 0 0 20 20" xml:space="preserve">
<path fill-rule="evenodd" clip-rule="evenodd" fill="#FFFFFF" d="M19.282,0h0.717v0.715c-0.174,0.541-0.359,1.072-0.523,1.604
	l-4.887,16.272c-0.255,0.848-1.002,1.431-1.789,1.408c-0.816-0.02-1.514-0.603-1.759-1.46c-0.664-2.349-1.349-4.698-2.003-7.059
	c-0.082-0.295-0.215-0.428-0.511-0.52c-2.239-0.623-4.468-1.307-6.718-1.899C0.91,8.826,0.296,8.376,0,7.508V6.875
	C0.245,6.16,0.654,5.618,1.441,5.383c2.096-0.603,4.182-1.236,6.268-1.869l7.965-2.401C16.88,0.756,18.076,0.378,19.282,0z"/>
</svg>
