<svg xmlns="http://www.w3.org/2000/svg" width="46" height="51" viewBox="0 0 46 51"><path fill-rule="evenodd" clip-rule="evenodd" fill="#31B99F" d="M21.26 6.58c-1.67.38-3.1 1.32-4.12 2.73-.12.16-.23.32-.33.49a1.076 1.076 0 01-1.48.35c-.51-.31-.67-.97-.36-1.47.13-.22.27-.42.42-.62 1.34-1.85 3.2-3.08 5.4-3.57.58-.13 1.16.23 1.29.81.13.58-.23 1.15-.82 1.28zm2.95-.11l-.14-.01h-.02c-.59-.07-1.01-.59-.95-1.18.06-.59.6-1.01 1.19-.95h.05c.59.08 1.01.62.93 1.21-.07.54-.53.93-1.06.93zm-5.54 14.68c-.74 0-1.34-.6-1.34-1.33s.6-1.33 1.34-1.33c.74 0 1.34.6 1.34 1.33s-.6 1.33-1.34 1.33zm8.66 0c-.73 0-1.33-.6-1.33-1.33a1.336 1.336 0 012.67 0c0 .73-.6 1.33-1.34 1.33zM18.78 42.5h-.08c-.59 0-1.08-.48-1.08-1.07s.49-1.07 1.08-1.07h.08c.6 0 1.08.48 1.08 1.07s-.48 1.07-1.08 1.07zm22.441-2.891l-4.25 4.211c-.211.209-.49.32-.761.32a1.1 1.1 0 01-.771-.32l-2.1-2.09a1.058 1.058 0 010-1.521c.42-.42 1.1-.42 1.52 0l1.351 1.34 3.479-3.46c.42-.42 1.11-.42 1.531 0 .421.421.421 1.1.001 1.52zm2.619-.379v-3.22c-2.25-.68-4.5-1.63-6.561-2.779l-.84.449-.01.01a31.782 31.782 0 01-5.72 2.32v3.221c0 .699.06 1.359.181 1.979v.03a9.77 9.77 0 001.52 3.74c.05.06.09.129.13.189 1.76 2.49 4.22 3.58 4.739 3.68.83-.16 6.561-2.829 6.561-9.619zm-14.08-8.839l-.39.26-.06.039c-2.07 1.19-4.19 1.79-6.31 1.79s-4.24-.601-6.31-1.791l-.06-.039-.35-.23c-1.18 2.061-3.51 2.95-5.77 3.811-3.92 1.5-7.97 3.049-8.32 10.379h27.54c-.301-.639-.57-1.34-.771-2.109h-7.08c-.6 0-1.08-.48-1.08-1.07s.48-1.07 1.08-1.07h6.72a14.24 14.24 0 01-.05-1.129V35.21c0-.489.33-.91.8-1.04 1.09-.3 2.15-.65 3.19-1.061-1.049-.489-2.019-1.319-2.779-2.718zm3.631-9.691c.06-.36.139-.81.25-1.33.149-.8.34-1.77.5-2.79-2.41-.6-3.961-2.7-4.75-4.1-5.07 3.59-12 2.25-14.281 1.66-.94 1.04-2.38 1.8-3.28 2.2.17 1.11.37 2.17.53 3.02.11.53.19.98.25 1.35.89 5.33 1.45 5.75 3.74 7.2l.01.01.1.061c.4.25.85.529 1.35.869 1.72.98 3.47 1.48 5.19 1.48 1.721 0 3.471-.5 5.189-1.48.511-.34.961-.619 1.351-.869 2.38-1.51 2.95-1.861 3.851-7.281zm.849-9.98C32.65 5.43 28.34 2.15 23 2.15s-9.65 3.28-11.24 8.57c-.26.88-.29 2.09-.19 3.36.89-.46 1.82-1.09 2.2-1.72.26-.43.78-.62 1.26-.47.08.03 8.94 2.77 14-1.88a1.077 1.077 0 011.74.4c.01.04 1.28 3.21 3.641 4.01.118-1.4.118-2.74-.171-3.7zm8.01 37.46C40.46 49.92 38.279 51 37.279 51s-3.189-1.08-4.979-2.82c-.409-.4-.85-.88-1.26-1.43H1.08c-.6 0-1.08-.48-1.08-1.07 0-4.3 1.07-7.49 3.26-9.75 1.9-1.959 4.33-2.88 6.47-3.699 2.4-.91 4.01-1.59 4.73-2.98-2.27-1.529-3.07-2.73-3.98-8.2-.05-.34-.14-.77-.24-1.28-.54-2.79-1.35-7-.55-9.66.93-3.09 2.69-5.66 5.1-7.45C17.13.92 19.97 0 23 0c3.029 0 5.87.92 8.21 2.66 2.41 1.79 4.17 4.36 5.101 7.45.799 2.66-.021 6.87-.551 9.66-.1.51-.189.94-.24 1.28-.899 5.44-1.709 6.66-3.939 8.171.92 1.819 2.24 2.319 4.1 2.43.35-.19.7-.381 1.051-.59.34-.201.76-.201 1.1 0 2.25 1.33 4.87 2.43 7.38 3.109.458.13.788.551.788 1.04v4.021c0 4.378-2.04 7.279-3.75 8.949z"/></svg>