<svg xmlns="http://www.w3.org/2000/svg" width="52" height="47" viewBox="0 0 52 47"><g fill-rule="evenodd" clip-rule="evenodd" fill="#31B99F"><path d="M26 10.22c-.56 0-1.02.45-1.02 1.02 0 .56.46 1.02 1.02 1.02s1.02-.46 1.02-1.02c0-.57-.46-1.02-1.02-1.02zM9.14 28.609c.56 0 1.02-.459 1.02-1.02 0-.57-.46-1.02-1.02-1.02s-1.01.449-1.01 1.02c0 .561.45 1.02 1.01 1.02z"/><path d="M46.4 23.87a.928.928 0 00-.25.43c-.59 2.06-.34 4.24.619 6.08a9.093 9.093 0 01-4.56-2.72 1.038 1.038 0 00-1.13-.26c-1.58.64-3.84 1.08-5.98 1.18-.3-3.859-2.209-7.49-5.49-10.19h13.25c.561 0 1.021-.46 1.021-1.02s-.46-1.02-1.021-1.02H26.49c-2.3-1.18-4.89-1.87-7.56-2.02.59-6.86 7.18-12.29 15.2-12.29 8.58 0 15.841 6.09 15.841 13.29 0 3.12-1.271 6.15-3.571 8.54zM17.88 42.91c-2.4 0-5.13-.471-6.96-1.2-.4-.16-.84-.06-1.13.261a9.091 9.091 0 01-4.56 2.719c.96-1.85 1.21-4.02.62-6.08a.964.964 0 00-.25-.439c-2.3-2.38-3.57-5.42-3.57-8.54 0-7.2 7.26-13.28 15.85-13.28 8.1 0 15.229 5.67 15.229 13.28 0 7.319-6.829 13.279-15.229 13.279zM34.13 0C24.98 0 17.48 6.34 16.9 14.33 8.19 14.77 0 21.09 0 29.63c0 3.57 1.4 7.03 3.96 9.771.51 2.1-.11 4.32-1.63 5.859-.29.29-.38.73-.22 1.11.16.38.53.63.94.63 2.89 0 5.68-1.141 7.76-3.16 2.02.7 4.66 1.12 7.07 1.12 9.14 0 16.64-6.34 17.22-14.33 2.131-.101 4.34-.489 6.09-1.09 2.08 2.01 4.871 3.16 7.761 3.16.409 0 .78-.25.94-.64.159-.381.069-.82-.221-1.11a6.232 6.232 0 01-1.63-5.851C50.6 22.36 52 18.9 52 15.33 52 6.45 43.18 0 34.13 0z"/><path d="M26 26.57H13.2c-.56 0-1.01.449-1.01 1.02 0 .561.45 1.02 1.01 1.02H26c.56 0 1.02-.459 1.02-1.02 0-.57-.46-1.02-1.02-1.02zm0 6.13H9.14c-.56 0-1.01.45-1.01 1.021 0 .559.45 1.02 1.01 1.02H26c.56 0 1.02-.461 1.02-1.02 0-.571-.46-1.021-1.02-1.021zm16.859-22.48H30.061a1.01 1.01 0 00-1.011 1.02c0 .56.45 1.02 1.011 1.02H42.86a1.02 1.02 0 10-.001-2.04z"/></g></svg>