<svg xmlns="http://www.w3.org/2000/svg" width="42" height="50" viewBox="0 0 42 50"><g fill-rule="evenodd" clip-rule="evenodd" fill="#31B99F"><ellipse cx="20.99" cy="27.54" rx="1" ry=".979"/><path d="M2 7.76l1.68-.13c6.07-.5 12.05-2.4 17.32-5.51a40.851 40.851 0 0017.32 5.51l1.68.13v17.21c0 13.18-9 16.01-19 22.86-8.78-5.95-19-9.33-19-22.86V7.76zm18.42 42.06a1.026 1.026 0 001.16 0C31.77 42.71 42 39.59 42 24.97V6.86c0-.5-.4-.93-.92-.97l-2.6-.21A38.856 38.856 0 0121.529.15c-.32-.2-.74-.2-1.06 0-5.13 3.13-11 5.04-16.95 5.53l-2.6.21A.989.989 0 000 6.86v18.11C0 40 11.67 43.71 20.42 49.82z"/></g><path fill-rule="evenodd" clip-rule="evenodd" fill="#31B99F" d="M8 12.99c4.16-.68 8.18-1.92 11.99-3.67v14.31c0 .54.45.98 1 .98s1-.44 1-.98V9.31c3.81 1.76 7.84 3 12.01 3.68v11.98c0 7.94-3.811 9.67-12.01 15.09v-8.61c0-.54-.45-.979-1-.979s-1 .439-1 .979v8.63C12.33 35.1 8 32.971 8 24.97V12.99zm12.42 29.731c.36.239.82.219 1.16-.031C30.641 36.57 36 34.561 36 24.97V12.16c0-.48-.359-.89-.85-.96a44.902 44.902 0 01-13.69-4.33c-.31-.15-.68-.13-.96.02A44.732 44.732 0 016.85 11.2c-.49.07-.85.48-.85.96v12.81c0 9.68 5.88 12.059 14.42 17.751z"/></svg>