<svg xmlns="http://www.w3.org/2000/svg" width="22" height="19" viewBox="0 0 22 19"><g fill="#FFF"><path d="M12.939 8.26a2.68 2.68 0 010 3.84 2.761 2.761 0 01-3.879 0 2.68 2.68 0 010-3.84 2.763 2.763 0 013.879 0z"/><path fill-rule="evenodd" clip-rule="evenodd" d="M11 15.609c-3.03 0-5.5-2.439-5.5-5.43 0-2.99 2.47-5.43 5.5-5.43 3.029 0 5.5 2.44 5.5 5.43 0 2.991-2.471 5.43-5.5 5.43zM19.25 2.71h-1.9L15.971 0H6.02L4.65 2.72h-1.9C1.24 2.72.01 3.94.01 5.43L0 16.29C0 17.779 1.23 19 2.75 19h16.5c1.52 0 2.75-1.221 2.75-2.71V5.43c0-1.5-1.23-2.72-2.75-2.72z"/></g></svg>