<svg xmlns="http://www.w3.org/2000/svg" width="18" height="18" viewBox="0 0 18 18"><g fill-rule="evenodd" clip-rule="evenodd" fill="#31BB9F"><path d="M16.109 4.74a.745.745 0 00-.35 1c.491 1.02.741 2.11.741 3.26 0 4.141-3.359 7.5-7.5 7.5-4.14 0-7.5-3.359-7.5-7.5 0-4.14 3.36-7.5 7.5-7.5 1.71 0 3.32.56 4.66 1.62.32.26.79.2 1.05-.12.261-.33.2-.8-.12-1.06A9.036 9.036 0 009 0C4.04 0 0 4.04 0 9s4.04 9 9 9 9-4.04 9-9c0-1.38-.3-2.69-.891-3.92a.748.748 0 00-1-.34z"/><path d="M9 3c-.41 0-.75.34-.75.75V9c0 .41.34.75.75.75h3.75c.41 0 .75-.34.75-.75s-.34-.75-.75-.75h-3v-4.5C9.75 3.34 9.41 3 9 3z"/></g></svg>