<svg xmlns="http://www.w3.org/2000/svg" width="24" height="24" viewBox="0 0 24 24"><g fill-rule="evenodd" clip-rule="evenodd" fill="#D90000"><path d="M.78 12.82h15.13c.43 0 .79-.37.79-.82s-.36-.82-.79-.82H.78c-.43 0-.78.37-.78.82s.35.82.78.82z"/><path d="M11.74 17.18c.2 0 .4-.08.55-.24l4.181-4.359a.862.862 0 000-1.16L12.29 7.06c-.3-.32-.8-.32-1.11 0-.3.32-.3.84 0 1.15L14.81 12l-3.63 3.79c-.3.319-.3.83 0 1.149.16.161.36.241.56.241z"/><path d="M12.52 24C18.85 24 24 18.62 24 12S18.85 0 12.52 0C7.77 0 3.58 2.99 1.84 7.61c-.16.42.04.89.44 1.06.4.17.86-.04 1.02-.46 1.5-3.99 5.12-6.57 9.22-6.57 5.47 0 9.91 4.65 9.91 10.36s-4.439 10.359-9.91 10.359c-4.1 0-7.72-2.58-9.22-6.569a.783.783 0 00-1.02-.46c-.4.17-.6.641-.44 1.061C3.58 21.01 7.77 24 12.52 24z"/></g></svg>