<svg xmlns="http://www.w3.org/2000/svg" width="18" height="17" viewBox="0 0 18 17"><path fill-rule="evenodd" clip-rule="evenodd" fill="#FFF" d="M12.755 15.525c.612 0 1.122-.499 1.122-1.106 0-.618-.51-1.106-1.122-1.106-.622 0-1.133.488-1.133 1.106 0 .607.511 1.106 1.133 1.106zM.745 13.682h9.501a2.619 2.619 0 015.009 0h2c.409 0 .745.329.745.737a.742.742 0 01-.745.738h-2a2.609 2.609 0 01-2.5 1.843 2.61 2.61 0 01-2.509-1.843H.745A.742.742 0 010 14.419c0-.408.336-.737.745-.737zm4.5-4.066c.622 0 1.132-.498 1.132-1.116 0-.607-.51-1.105-1.132-1.105-.612 0-1.123.498-1.123 1.105a1.124 1.124 0 001.123 1.116zm-4.5-1.853h2a2.608 2.608 0 012.5-1.843c1.194 0 2.183.777 2.51 1.843h9.5c.409 0 .745.328.745.737s-.336.747-.745.747h-9.5a2.622 2.622 0 01-5.01 0h-2C.336 9.247 0 8.909 0 8.5s.336-.737.745-.737zm12.01-6.278c-.622 0-1.133.498-1.133 1.106s.511 1.107 1.133 1.107c.612 0 1.122-.499 1.122-1.107s-.51-1.106-1.122-1.106zm4.5 1.844h-2a2.618 2.618 0 01-5.009 0H.745A.742.742 0 010 2.591c0-.409.336-.737.745-.737h9.501a2.618 2.618 0 015.009 0h2c.409 0 .745.329.745.737a.742.742 0 01-.745.738z"/></svg>