<svg xmlns="http://www.w3.org/2000/svg" width="22" height="20" viewBox="0 0 22 20"><path fill-rule="evenodd" clip-rule="evenodd" fill="#31BB9F" d="M9.617 13.284h5.463c.482 0 .876.384.876.855 0 .462-.394.846-.876.846H9.617c-.482 0-.876-.384-.876-.846 0-.471.394-.855.876-.855zm5.463-6.263H9.617c-.482 0-.876-.374-.876-.846s.394-.855.876-.855h5.463c.482 0 .876.384.876.855 0 .472-.393.846-.876.846zm2.097 4.11h-7.56c-.482 0-.876-.384-.876-.846 0-.472.394-.855.876-.855h7.56c.473 0 .865.384.865.855a.863.863 0 01-.865.846zm3.07-9.43H6.565v15.094c0 .53-.128 1.032-.364 1.475h11.9c1.161 0 2.146-.954 2.146-2.095V1.701zm-15.424 8.86H3.278c-.847 0-1.536.678-1.536 1.504v4.73c0 .835.689 1.504 1.536 1.504v-.029h.305c.708-.138 1.24-.747 1.24-1.475v-6.234zm13.279 9.411H3.721a3.535 3.535 0 01-.443.028C1.476 20 0 18.564 0 16.795v-4.73c0-1.76 1.476-3.195 3.278-3.195h1.545V.846c0-.472.394-.846.866-.846h15.435c.482 0 .876.374.876.846v15.329c0 2.095-1.753 3.797-3.898 3.797z"/></svg>