<svg xmlns="http://www.w3.org/2000/svg" width="24" height="24" viewBox="0 0 24 24"><path fill-rule="evenodd" clip-rule="evenodd" fill="#31BB9F" d="M8.41 2.21c-1.32 0-2.39 1.09-2.39 2.42s1.07 2.41 2.39 2.41c1.33 0 2.4-1.08 2.4-2.41s-1.07-2.42-2.4-2.42zm0 7.04c-2.53 0-4.59-2.07-4.59-4.62C3.82 2.08 5.88 0 8.41 0c2.54 0 4.6 2.08 4.6 4.63s-2.06 4.62-4.6 4.62zm9.05 10c-.22.221-.5.33-.78.33-.279 0-.56-.109-.77-.33l-2.2-2.21a1.14 1.14 0 01-.319-.78c0-.3.119-.58.319-.779l2.2-2.221c.43-.43 1.119-.43 1.55 0 .431.44.431 1.141 0 1.57l-1.42 1.43 1.42 1.43c.431.43.431 1.13 0 1.56zm-1.14-8.52c-3.03 0-5.49 2.48-5.49 5.53 0 3.051 2.46 5.53 5.49 5.53 3.02 0 5.479-2.479 5.479-5.53.001-3.05-2.459-5.53-5.479-5.53zm-7.26 2.98c-.21-.021-.43-.03-.65-.03-3.05 0-5.6 2.23-6.12 5.16h6.78a7.9 7.9 0 01-.44-2.58c0-.89.16-1.75.43-2.55zM16.32 24c-2.44 0-4.62-1.15-6.03-2.95H1.1c-.61 0-1.1-.489-1.1-1.11 0-4.67 3.77-8.469 8.41-8.469.59 0 1.17.06 1.74.18 1.4-1.9 3.64-3.13 6.17-3.13 4.229 0 7.68 3.47 7.68 7.74S20.55 24 16.32 24z"/></svg>