<svg xmlns="http://www.w3.org/2000/svg" width="26" height="22" viewBox="0 0 26 22"><path d="M9.778 13.274a.754.754 0 010 1.105.817.817 0 01-1.146 0 .754.754 0 010-1.105.817.817 0 011.146 0zm-3.356 0a.754.754 0 010 1.105.817.817 0 01-1.146 0 .754.754 0 010-1.105.817.817 0 011.146 0zm6.714 0a.753.753 0 010 1.105.817.817 0 01-1.146 0 .753.753 0 010-1.105.817.817 0 011.146 0z"/><path fill-rule="evenodd" clip-rule="evenodd" d="M24.371 12.569h-3.246a.808.808 0 00-.644.304c-.149.186-.211.439-.149.675l.351 1.351-2.814-1.546V5.498a.796.796 0 00-.803-.783H9.749v-3.14h14.622v10.994zm-8.12 4.716h-4.875c-.12 0-.23.019-.331.068l-5.789 2.483.402-1.574a.74.74 0 00-.141-.674.821.821 0 00-.644-.304H1.628V6.29h14.623v10.995zM25.186 0H8.935c-.443 0-.815.352-.815.782v3.933H.813c-.452 0-.813.352-.813.783v12.571c0 .439.361.791.813.791h3.016l-.553 2.162c-.08.294.03.597.261.792a.848.848 0 00.524.186c.11 0 .23-.02.331-.068l7.156-3.072h5.518a.797.797 0 00.803-.791v-2.906l3.669 2.016c.12.067.261.107.402.107.171 0 .341-.06.482-.157a.778.778 0 00.301-.821l-.563-2.162h3.025a.8.8 0 00.814-.792V.782C26 .352 25.638 0 25.186 0z"/></svg>