<svg xmlns="http://www.w3.org/2000/svg" width="24" height="20" viewBox="0 0 24 20"><path d="M4.86 17.141l.66-1.57c.32-.76.48-1.561.48-2.391V8.57c0-3.15 2.69-5.71 6-5.71 3.311 0 6 2.56 6 5.71v4.61c0 .83.16 1.631.48 2.391l.66 1.57H4.86zm15.02-2.101a4.76 4.76 0 01-.38-1.86V8.57c0-3.2-2.24-5.88-5.29-6.79C14.029.77 13.109 0 12 0c-1.11 0-2.03.77-2.21 1.78-3.05.91-5.29 3.59-5.29 6.79v4.61c0 .641-.13 1.271-.38 1.86l-1.07 2.55a.7.7 0 00.08.67c.14.19.37.311.62.311h5.7A3 3 0 0012 20c1.07 0 2.02-.57 2.55-1.43h5.7c.25 0 .48-.12.62-.311a.7.7 0 00.08-.67l-1.07-2.549zM1.41 4.62C.49 6.27 0 8.13 0 10s.49 3.73 1.41 5.38l1.33-.67a9.556 9.556 0 010-9.42l-1.33-.67zm21.18 0l-1.33.67a9.556 9.556 0 010 9.42l1.33.67C23.51 13.73 24 11.87 24 10s-.49-3.73-1.41-5.38z" fill-rule="evenodd" clip-rule="evenodd"/></svg>