<?xml version="1.0" encoding="utf-8"?>
<!-- Generator: Adobe Illustrator 16.2.0, SVG Export Plug-In . SVG Version: 6.00 Build 0)  -->
<!DOCTYPE svg PUBLIC "-//W3C//DTD SVG 1.1//EN" "http://www.w3.org/Graphics/SVG/1.1/DTD/svg11.dtd">
<svg version="1.1" id="Слой_1" xmlns="http://www.w3.org/2000/svg" xmlns:xlink="http://www.w3.org/1999/xlink" x="0px" y="0px"
	 width="22px" height="20px" viewBox="0 0 22 20" enable-background="new 0 0 22 20" xml:space="preserve">
<path fill-rule="evenodd" clip-rule="evenodd" fill="#30BA9E" d="M0.92,20c0.34,0,0.65-0.189,0.81-0.51l0.02-0.03
	c1.72-3.521,5.18-5.71,9.02-5.71h1.451v4.061c0,0.39,0.229,0.729,0.579,0.869c0.341,0.15,0.74,0.061,1-0.22l7.94-8.43
	c0.35-0.37,0.35-0.94,0-1.3L13.8,0.29c-0.26-0.28-0.659-0.37-1-0.22c-0.35,0.14-0.579,0.49-0.579,0.87V5H11.92
	C5.35,5,0,10.47,0,17.189v1.871c0,0.439,0.29,0.81,0.7,0.91C0.77,19.99,0.85,20,0.92,20z"/>
</svg>
