<svg xmlns="http://www.w3.org/2000/svg" width="24" height="24" viewBox="0 0 24 24"><g fill="#FFF"><path d="M12 16.3c-2.37 0-4.3-1.93-4.3-4.3S9.63 7.7 12 7.7s4.3 1.93 4.3 4.3-1.93 4.3-4.3 4.3zm0-10.04c-3.16 0-5.74 2.58-5.74 5.74s2.58 5.74 5.74 5.74 5.74-2.58 5.74-5.74S15.16 6.26 12 6.26z"/><path d="M22.57 13.45l-1.7.37a.704.704 0 00-.53.51 8.886 8.886 0 01-.8 1.92c-.13.23-.12.51.021.74l.939 1.449-2.061 2.061-1.449-.939a.73.73 0 00-.74-.021c-.609.34-1.25.61-1.92.8-.26.07-.45.27-.51.53l-.37 1.7h-2.9l-.37-1.7a.704.704 0 00-.51-.53c-.67-.19-1.31-.46-1.92-.8a.725.725 0 00-.74.021l-1.45.939-2.06-2.061.94-1.449c.14-.23.15-.51.02-.74a8.937 8.937 0 01-.8-1.92.705.705 0 00-.53-.51l-1.7-.37v-2.9l1.7-.37c.26-.06.46-.25.53-.51.19-.67.46-1.31.8-1.92.13-.23.12-.51-.02-.74L3.5 5.56 5.56 3.5l1.45.94c.23.14.51.15.74.02.61-.34 1.25-.61 1.92-.8.26-.07.45-.27.51-.53l.37-1.7h2.9l.37 1.7c.06.26.25.46.51.53.67.19 1.311.46 1.92.8.23.13.51.12.74-.02l1.449-.94L20.5 5.56l-.939 1.45a.727.727 0 00-.021.74c.34.61.61 1.25.8 1.92.07.26.27.45.53.51l1.7.37v2.9zm.869-4.18l-1.851-.4A10.88 10.88 0 0021 7.43l1.02-1.58a.72.72 0 00-.1-.9l-2.87-2.87a.724.724 0 00-.899-.1L16.57 3c-.471-.23-.95-.43-1.44-.59l-.4-1.85a.719.719 0 00-.701-.56H9.97c-.34 0-.63.24-.7.56l-.4 1.85c-.49.16-.97.36-1.44.59L5.85 1.98a.726.726 0 00-.9.1L2.08 4.95c-.24.24-.28.61-.1.9L3 7.43c-.23.47-.43.95-.59 1.44l-1.85.4c-.32.07-.56.36-.56.7v4.059c0 .341.24.631.56.701l1.85.398c.16.492.36.972.59 1.442l-1.02 1.58c-.18.289-.14.66.1.898l2.87 2.87c.24.24.61.28.9.101L7.43 21c.47.23.95.43 1.44.59l.4 1.85c.07.32.36.56.7.56h4.059c.341 0 .631-.24.701-.561l.398-1.851c.49-.159.971-.358 1.439-.59l1.58 1.021a.72.72 0 00.899-.101l2.87-2.87a.723.723 0 00.1-.898L21 16.57c.23-.471.43-.95.59-1.44l1.85-.399a.72.72 0 00.56-.702V9.97c0-.34-.24-.63-.561-.7z"/></g></svg>