<svg xmlns="http://www.w3.org/2000/svg" width="16" height="15" viewBox="0 0 16 15"><path fill="#30BA9E" d="M8 1.222l1.693 3.869.237.543.591.052 4.223.375-3.176 2.731-.459.395.137.59.945 4.068-3.686-2.158L8 11.391l-.505.296-3.687 2.159.946-4.069.137-.59-.459-.396-3.176-2.73 4.223-.375.59-.052.237-.543L8 1.222M8 0c-.34 0-.65.2-.78.51L5.39 4.69.77 5.1c-.34.03-.62.25-.73.57-.1.31-.01.66.25.88l3.49 3-1.03 4.43A.843.843 0 003.58 15c.15 0 .3-.04.44-.12L8 12.55l3.98 2.33a.87.87 0 00.939-.04c.27-.189.4-.529.33-.859L12.221 9.55l3.489-3a.813.813 0 00.25-.88.842.842 0 00-.729-.57l-4.621-.41L8.78.51A.843.843 0 008 0z"/></svg>