<?xml version="1.0" encoding="utf-8"?>
<!-- Generator: Adobe Illustrator 16.2.0, SVG Export Plug-In . SVG Version: 6.00 Build 0)  -->
<!DOCTYPE svg PUBLIC "-//W3C//DTD SVG 1.1//EN" "http://www.w3.org/Graphics/SVG/1.1/DTD/svg11.dtd">
<svg version="1.1" id="Слой_1" xmlns="http://www.w3.org/2000/svg" xmlns:xlink="http://www.w3.org/1999/xlink" x="0px" y="0px"
	 width="22px" height="17px" viewBox="0 0 22 17" enable-background="new 0 0 22 17" xml:space="preserve">
<path fill-rule="evenodd" clip-rule="evenodd" fill="#31BB9F" d="M3.87,5.06c-0.48,0-0.86-0.38-0.86-0.86s0.38-0.86,0.86-0.86
	c0.47,0,0.86,0.38,0.86,0.86S4.34,5.06,3.87,5.06z M20.279,3.06l-6.92,4.2V2.91c0-0.48-0.379-0.86-0.859-0.86H2.58
	c-0.48,0-0.86,0.38-0.86,0.86v11.24c0,0.471,0.38,0.859,0.86,0.859h9.92c0.48,0,0.859-0.389,0.859-0.859V9.74l6.92,4.199V3.06z
	 M15.08,12.801v1.35c0,1.42-1.15,2.58-2.58,2.58H2.58C1.16,16.73,0,15.57,0,14.15V2.91c0-1.43,1.16-2.59,2.58-2.59h9.92
	c1.43,0,2.58,1.16,2.58,2.59V4.2L22,0v17L15.08,12.801z"/>
</svg>
